HIERARCHY
ROOT Hips
{
  OFFSET -79.7045 102.342 5.7837
  CHANNELS 6 Xposition Yposition Zposition Zrotation Xrotation Yrotation
  JOINT RightUpLeg
  {
    OFFSET -8.9458 -8.66707 0.101652
    CHANNELS 3 Zrotation Xrotation Yrotation
    JOINT RightLeg
    {
      OFFSET 0 -44.4227 1.3727
      CHANNELS 3 Zrotation Xrotation Yrotation
      JOINT RightFoot
      {
        OFFSET 0.253549 -42.0924 -1.46059
        CHANNELS 3 Zrotation Xrotation Yrotation
        JOINT RightToes
        {
          OFFSET 0.04 -4.41509 8.4991
          CHANNELS 3 Zrotation Xrotation Yrotation
          End Site
          {
            OFFSET -0.08 -0.137448 9.77979
          }
        }
      }
    }
  }
  JOINT Spine
  {
    OFFSET 0 11.8905 0
    CHANNELS 3 Zrotation Xrotation Yrotation
    JOINT Spine1
    {
      OFFSET 0 25.6574 0.127663
      CHANNELS 3 Zrotation Xrotation Yrotation
      JOINT HEad
      {
        OFFSET 0 8.73416 0.011341
        CHANNELS 3 Zrotation Xrotation Yrotation
        End Site
        {
          OFFSET -0.29 12.7742 2.51395
        }
      }
      JOINT LeftShoulder1
      {
        OFFSET 8.99 -0.362252 -0.22
        CHANNELS 3 Zrotation Xrotation Yrotation
        JOINT LeftArm
        {
          OFFSET 10.2827 -0.00337999 0.322123
          CHANNELS 3 Zrotation Xrotation Yrotation
          JOINT LeftForeArm
          {
            OFFSET 26.2597 0.099144 -1.42434
            CHANNELS 3 Zrotation Xrotation Yrotation
            JOINT LeftHand
            {
              OFFSET 22.0902 0.085362 1.02216
              CHANNELS 3 Zrotation Xrotation Yrotation
              End Site
              {
                OFFSET 13.419 -0.6 1.50291
              }
            }
          }
        }
      }
      JOINT RightShoulder
      {
        OFFSET -8.99 -0.362252 -0.22
        CHANNELS 3 Zrotation Xrotation Yrotation
        JOINT RightArm
        {
          OFFSET -10.2827 -0.00338 0.322123
          CHANNELS 3 Zrotation Xrotation Yrotation
          JOINT RightForeArm
          {
            OFFSET -26.364 0.099144 -1.42434
            CHANNELS 3 Zrotation Xrotation Yrotation
            JOINT RightHand
            {
              OFFSET -22.0324 0.085362 1.02216
              CHANNELS 3 Zrotation Xrotation Yrotation
              End Site
              {
                OFFSET -13.3284 -0.6 1.50291
              }
            }
          }
        }
      }
    }
  }
  JOINT LeftUpLeg
  {
    OFFSET 8.9458 -8.66707 0.101652
    CHANNELS 3 Zrotation Xrotation Yrotation
    JOINT LeftLeg
    {
      OFFSET 0 -44.4227 1.3727
      CHANNELS 3 Zrotation Xrotation Yrotation
      JOINT LeftFoot
      {
        OFFSET -0.253549 -42.0924 -1.46059
        CHANNELS 3 Zrotation Xrotation Yrotation
        JOINT LeftToes
        {
          OFFSET -0.04 -4.41509 8.4991
          CHANNELS 3 Zrotation Xrotation Yrotation
          End Site
          {
            OFFSET 0.08 -0.047448 9.77979
          }
        }
      }
    }
  }
}
MOTION
Frames:	10
Frame Time:	0.0333333
-40.9752 98.7051 1.99859 -5.11258 3.128 -93.4916 5.99084 11.2736 -2.93351 -1.1398 19.1698 -4.08252 -2.48263 -19.6202 -0.517537 0.0462048 0.000530889 0.662642 7.57163 8.39299 2.59828 -4.53437 5.75418 4.14299 -5.28657 6.07482 -4.49292 -36.0076 -6.62781 19.1681 -55.317 -59.0701 -20.4678 -172.036 66.5319 177.131 8.19699 9.03853 -8.12086 24.6883 0.392211 -2.93975 42.4293 -1.57543 34.9735 -2.37875 29.0462 27.9233 -3.35628 9.64877 6.21069 2.52901 -24.7392 0.568399 1.1904 10.9769 17.3946 3.33876 -4.89314 -0.0659121 -1.32859e-009 8.7527e-006 -1.48005e-008 
-46.326 97.5356 2.19662 -4.92199 3.27031 -94.5662 5.4879 13.9672 -3.588 -1.72502 20.6176 -1.99918 -1.55031 -21.9717 -0.468477 0.0462048 0.000530889 0.662642 9.18483 7.93745 3.27193 -6.58084 5.88049 5.2976 -6.35021 5.86276 -4.66256 -36.4131 -6.97204 19.8052 -50.4596 -61.7037 -16.953 -172.21 65.5167 178.641 7.8431 9.09381 -7.88693 23.7966 0.593002 -2.25042 42.6482 -4.35574 37.0819 -3.34088 30.0146 30.0396 -3.46854 9.63451 6.34852 2.66958 -24.409 0.206374 1.82187 2.53333 17.37 2.39203 -5.72575 -0.0295686 -1.32859e-009 8.7527e-006 -1.48005e-008 
-51.8237 96.528 2.38151 -4.81292 3.0136 -95.1162 4.95448 16.3251 -2.53016 -2.37121 22.9851 -2.12139 0.359463 -23.1902 -0.224439 0.0462048 0.000530889 0.662642 9.61928 7.44021 3.70894 -7.80824 6.29671 6.07895 -7.07766 5.95592 -4.69381 -36.9758 -7.39257 20.5544 -47.6932 -64.4878 -15.8553 -172.286 62.8616 -178.985 7.56703 9.16184 -7.26256 22.8222 0.779997 -1.57436 43.4904 -6.53169 38.3133 -3.92677 30.5781 31.1188 -3.72676 9.60362 6.54765 2.32425 -25.6295 -0.00768541 1.37108 2.6515 13.2265 0.322293 -6.29147 0.0387101 -1.32859e-009 8.7527e-006 -1.48005e-008 
-57.4697 95.9871 2.56964 -4.75107 1.65808 -94.8793 3.53399 18.0934 1.60285 -1.94829 26.5286 -5.53458 4.982 -22.3752 0.384507 0.0462048 0.000530889 0.662642 8.37193 6.73625 3.87765 -9.06971 7.19781 6.71779 -7.13082 6.1249 -5.10189 -36.8733 -7.37516 20.5532 -45.6717 -66.7169 -14.915 -171.977 60.2149 -177.205 7.42165 9.22329 -6.43836 22.9736 0.813795 -1.46513 43.7785 -7.86988 38.3006 -4.25065 30.7837 32.0237 -3.93692 9.57459 6.83571 -0.0526128 -26.8997 -1.29623 0.922329 7.68488 10.9919 2.37311 -1.13438 -0.218544 -1.32859e-009 8.7527e-006 -1.48005e-008 
-63.3621 95.6697 2.82692 -4.95837 0.207446 -94.3727 1.89575 17.9824 4.33995 -0.570834 33.7132 -8.70724 9.3285 -18.565 0.644832 0.0462048 0.000530889 0.662642 6.8255 6.50152 3.97471 -9.53993 6.9638 6.91707 -6.42304 6.47741 -5.98629 -37.1281 -7.49025 20.7131 -46.1725 -68.1479 -16.8939 -171.362 56.422 -175.873 7.21946 9.29762 -5.46675 23.7682 0.748807 -1.73361 43.8345 -8.28437 36.8145 -4.40908 30.7525 32.9147 -4.11169 9.54907 7.09714 -3.12098 -28.67 -3.0948 0.896781 16.1448 12.4311 7.89455 5.31918 -0.90774 -1.32859e-009 8.7527e-006 -1.48005e-008 
-69.1205 95.6615 3.11856 -5.68423 -0.565566 -93.1957 0.792311 15.0753 1.76255 -0.873584 45.0071 -7.94671 10.3675 -9.25633 0.00657233 0.0462048 0.000530889 0.662642 5.74313 7.01318 3.57436 -8.89965 6.0132 6.3811 -5.97518 6.72587 -6.47277 -36.932 -7.30326 20.3648 -49.9445 -68.2496 -20.5241 -170.682 52.4957 -175.163 7.38617 9.3218 -4.73429 24.0935 0.739681 -1.78188 44.6224 -7.80803 34.5854 -4.27722 30.5877 32.8707 -4.11691 9.54984 7.04098 -4.6808 -28.8734 -1.99057 0.684753 23.9872 10.4828 8.75001 5.69522 -1.06772 -1.32859e-009 8.7527e-006 -1.48005e-008 
-74.3379 96.0319 3.41961 -6.66351 -0.734438 -92.766 0.189644 10.333 0.689455 -1.13765 56.3327 -7.94868 7.63183 3.56422 -0.825311 0.0462048 0.000530889 0.662642 5.40273 7.48691 3.04471 -8.42495 6.11409 5.97589 -6.87632 6.73338 -6.24543 -36.604 -7.06682 19.9549 -54.0572 -66.3734 -23.4519 -170.754 50.3121 -175.542 7.45293 9.32825 -4.51706 24.2466 0.797035 -1.60213 44.4607 -5.40673 32.5617 -3.46305 29.8545 31.3847 -3.78222 9.59222 6.78809 -4.54549 -27.0498 1.75952 0.653486 28.7765 7.51351 10.289 3.45086 -1.03225 -1.32859e-009 8.7527e-006 -1.48005e-008 
-79.1431 96.6495 3.67403 -7.55573 -1.31744 -92.613 -0.614386 6.16324 0.230937 -1.47759 63.9439 -8.44982 4.74667 7.92368 -0.74492 0.0462048 0.000530889 0.662642 3.38555 7.72027 2.66274 -6.87842 6.75734 5.06278 -8.08998 7.54073 -5.09361 -36.5664 -6.97016 19.7462 -58.5766 -63.5066 -26.4364 -171.317 49.9748 -176.355 8.07362 9.25399 -4.86211 24.9172 0.730918 -1.85248 42.5439 -0.327179 31.4124 -2.14633 28.5269 28.6967 -3.59469 9.61446 6.67558 -4.75055 -24.3614 4.65003 0.600735 31.8489 5.35742 11.1759 -0.634119 -0.702023 -1.32859e-009 8.7527e-006 -1.48005e-008 
-83.7478 97.6783 3.95227 -7.97526 -2.04994 -92.0232 -1.80106 1.44866 -0.92015 -1.9402 69.3023 -9.15302 3.55142 1.81893 -0.396969 0.0462048 0.000530889 0.662642 1.67666 7.44869 2.12835 -5.67247 7.17436 4.08513 -7.7077 8.98474 -4.58235 -36.103 -6.58171 19.0185 -63.576 -59.6418 -29.6155 -172.174 51.0577 -177.556 8.58464 9.17403 -5.38142 25.8579 0.557881 -2.44066 41.7789 4.02469 29.4071 -1.17471 27.3597 26.0269 -2.83166 9.70137 6.14203 -5.76467 -20.6355 5.32503 0.554796 31.7894 4.46657 11.1654 -3.55092 -0.399761 -1.32859e-009 8.7527e-006 -1.48005e-008 
-88.0255 98.8367 4.20183 -7.98476 -2.35733 -91.7683 -2.37625 -4.23364 -1.45781 -2.24838 71.5155 -10.0112 3.13762 -1.10691 -0.310267 0.0462048 0.000530889 0.662642 0.874453 7.3786 1.69423 -5.20191 7.16349 3.2891 -6.5195 10.1114 -4.72756 -35.2618 -6.07048 18.1228 -68.8206 -55.2074 -32.8941 -172.975 53.8534 -179.049 9.04188 9.09289 -5.93983 27.0442 0.300182 -3.24931 43.8665 4.06833 25.9554 -0.472387 27.6214 23.5192 -1.82227 9.80816 5.48013 -6.6073 -16.8476 4.34572 0.571724 30.2126 5.14805 10.2411 -5.4845 -0.178769 -1.32859e-009 8.7527e-006 -1.48005e-008 
